<svg height="300" width="300" xmlns="http://www.w3.org/2000/svg" viewBox="0 0 100 100"><g color="#000"><path style="text-indent:0;text-transform:none;block-progression:tb" d="M44 21c-4.397 0-8 3.603-8 8V56.53c-1.239-2.677-3.461-5.57-6.25-6.28-3.794-1.031-8.441 2.004-9.5 5.53-.54 1.966-.188 4.202.875 6.938C26.321 75.212 32.717 87.206 40.5 96.313c.372.427.933.684 1.5.687h27c.425-.004.848-.15 1.187-.406 2.879-2.133 5.199-5.765 7.125-10.094 1.926-4.328 3.4-9.35 4.156-14.25.756-4.9.753-9.489-.312-13.562-1.029-3.932-3.802-7.204-7.938-7.688-.975-.004-2.004.081-2.875.281-.513-1.226-1.232-2.272-2.125-2.906-1.495-1.061-3.017-1.395-4.25-1.375-1.183.02-2.262.45-3.218 1.125-.43-.657-.873-1.34-1.438-1.75C57.83 45.298 56.252 45 55 45c-1.036 0-2.04.287-3 .687V29c-.085-5.353-4.307-8.01-8-8zm0 4c2.25 0 4 1.75 4 4v21c-.013.907.669 1.776 1.552 1.979.884.202 1.877-.282 2.26-1.104C52.254 49.957 53.918 49 55 49c.485 0 1.386.202 1.969.625.582.423 1.03.919 1.03 2.375 0 .89.67 1.734 1.535 1.941.864.207 1.842-.243 2.247-1.035.813-1.626 1.249-1.89 2.25-1.906.277-.005 1.248.18 1.875.625S67 52.582 67 54c-.01.779.487 1.54 1.202 1.85a2.05 2.05 0 002.173-.381c.758-.374 1.502-.487 2.468-.469 2.385.303 3.623 1.798 4.469 4.781.854 3.011.886 7.315.187 11.844-.698 4.529-2.079 9.285-3.843 13.25C72 88.595 69.974 91.499 68.187 93H42.97c-7.02-8.282-13.724-20.998-18.094-31.719-.91-2.341-.991-3.686-.781-4.437.741-1.935 2.815-3.027 4.594-2.75 2.126.8 2.653 2.22 3.562 3.844l3.969 7.968c.404.792 1.382 1.242 2.247 1.035.865-.207 1.532-1.052 1.534-1.941V29c0-2.25 1.75-4 4-4z" overflow="visible"/><path style="text-indent:0;text-transform:none;block-progression:tb" d="M29 3c-.526.005-1.064.198-1.438.594l-9 8.998c-.436.4-.541.903-.562 1.406.017.547.147.984.563 1.406l9 8.998c.734.807 2.09.777 2.843.031.754-.745.76-2.104 0-2.843l-5.594-5.593h38.376l-5.594 5.593c-.76.74-.754 2.098 0 2.843.754.746 2.113.737 2.844-.031l9-8.998c.415-.422.545-.859.562-1.406-.021-.503-.126-1.006-.563-1.406l-9-8.998c-.746-.792-2.09-.777-2.843-.032-.754.746-.76 2.105 0 2.844l5.594 5.592H24.812l5.594-5.592c.76-.74.754-2.098 0-2.844A1.958 1.958 0 0029 3z" overflow="visible"/></g></svg>